g CashModel
v 0.2375314 0.05539216 -0.4994684
v 0.2377838 0.287239 -0.4480691
v -0.2371679 0.2877576 -0.4480687
v -0.2374211 0.05591081 -0.4994682
v 0.234134 0.269658 -0.353552
v 0.2377838 0.287239 -0.4480691
v 0.2375314 0.05539216 -0.4994684
v 0.2338829 0.03986521 -0.3941824
v 0.2298031 0.02456697 -0.2764143
v 0.2300514 0.2520622 -0.2478296
v 0.2264515 0.2383679 -0.1546129
v 0.2262053 0.01289843 -0.1725768
v 0.2375314 0.05539216 -0.4994684
v -0.2374211 0.05591081 -0.4994682
v -0.2338032 0.04037571 -0.3941821
v 0.2338829 0.03986521 -0.3941824
v 0.2298031 0.02456697 -0.2764143
v -0.2297559 0.02506863 -0.2764139
v -0.2261873 0.01339228 -0.1725765
v 0.2262053 0.01289843 -0.1725768
v -0.2374211 0.05591081 -0.4994682
v -0.2371679 0.2877576 -0.4480687
v -0.2335521 0.2701687 -0.3535517
v -0.2338032 0.04037571 -0.3941821
v -0.2297559 0.02506863 -0.2764139
v -0.2295076 0.252564 -0.2478292
v -0.2259417 0.2388618 -0.1546125
v -0.2261873 0.01339228 -0.1725765
v -0.2335542 0.004984091 -0.1699149
v -0.2332899 0.2467442 -0.151016
v -0.2332899 0.2420151 -0.05614481
v -0.2335542 0.0002550063 -0.06317108
v -0.2332899 0.2420151 0.05614529
v -0.2335542 0.0002548234 0.06317143
v -0.2332899 0.2467022 0.1503144
v -0.2335542 0.004941928 0.1691252
v 0.2264515 0.2383679 -0.1546129
v -0.2259417 0.2388618 -0.1546125
v -0.2295076 0.252564 -0.2478292
v 0.2300514 0.2520622 -0.2478296
v 0.234134 0.269658 -0.353552
v -0.2335521 0.2701687 -0.3535517
v 0.2377838 0.287239 -0.4480691
v -0.2371679 0.2877576 -0.4480687
v 0.2264515 0.2383679 -0.1546129
v 0.2268559 0.01196673 -0.1711894
v 0.2271042 0.2389539 -0.1532514
v 0.2262053 0.01289843 -0.1725768
v -0.2268407 0.01246214 -0.1711891
v -0.2261873 0.01339228 -0.1725765
v -0.2268407 0.01246214 -0.1711891
v -0.2321163 0.00666351 -0.1716477
v 0.2321191 0.006156823 -0.1716481
v 0.2268559 0.01196673 -0.1711894
v 0.2271042 0.2389539 -0.1532514
v 0.2323792 0.2447525 -0.1527927
v -0.2265923 0.2394491 -0.153251
v -0.2318555 0.2452592 -0.1527923
v -0.2268407 0.01246214 -0.1711891
v -0.2265923 0.2394491 -0.153251
v -0.2321163 0.00666351 -0.1716477
v 0.2323792 0.2447525 -0.1527927
v 0.2321191 0.006156823 -0.1716481
v 0.2335542 0.00447411 -0.1699153
v 0.2338177 0.2462344 -0.1510164
v -0.2332899 0.2467442 -0.151016
v -0.2318555 0.2452592 -0.1527923
v -0.2335542 0.004984091 -0.1699149
v -0.2321163 0.00666351 -0.1716477
v -0.2268407 0.01246214 -0.1711891
v -0.2261873 0.01339228 -0.1725765
v -0.2259417 0.2388618 -0.1546125
v -0.2265923 0.2394491 -0.153251
v 0.2264515 0.2383679 -0.1546129
v 0.2271042 0.2389539 -0.1532514
v 0.2321191 0.006156823 -0.1716481
v -0.2321163 0.00666351 -0.1716477
v -0.2335542 0.004984091 -0.1699149
v 0.2335542 0.00447411 -0.1699153
v 0.2338177 0.2462344 -0.1510164
v 0.2335542 0.00447411 -0.1699153
v 0.2335542 -0.0002549751 -0.06317143
v 0.2338177 0.2415053 -0.05614516
v 0.2338177 0.2415051 0.05614503
v 0.2335542 -0.0002549846 0.06317108
v 0.2335542 0.004431947 0.1691249
v 0.2338177 0.2461921 0.150314
v 0.2335542 -0.0002549751 -0.06317143
v 0.2335542 0.00447411 -0.1699153
v -0.2335542 0.004984091 -0.1699149
v -0.2335542 0.0002550063 -0.06317108
v 0.2335542 -0.0002549846 0.06317108
v -0.2335542 0.0002548234 0.06317143
v 0.2335542 0.004431947 0.1691249
v -0.2335542 0.004941928 0.1691252
v 0.2338177 0.2415053 -0.05614516
v -0.2332899 0.2467442 -0.151016
v 0.2338177 0.2462344 -0.1510164
v -0.2332899 0.2420151 -0.05614481
v -0.2332899 0.2420151 0.05614529
v 0.2338177 0.2415051 0.05614503
v -0.2332899 0.2467022 0.1503144
v 0.2338177 0.2461921 0.150314
v -0.2321156 0.006663484 0.1716481
v -0.2335542 0.004941928 0.1691252
v -0.2332899 0.2467022 0.1503144
v -0.2318555 0.245259 0.1527929
v 0.2338177 0.2461921 0.150314
v 0.2323799 0.2447522 0.1527925
v 0.2321191 0.006156623 0.1716477
v 0.2335542 0.004431947 0.1691249
v 0.2335542 0.004431947 0.1691249
v -0.2335542 0.004941928 0.1691252
v -0.2321156 0.006663484 0.1716481
v 0.2321191 0.006156623 0.1716477
v -0.22684 0.01246177 0.1711894
v 0.2321191 0.006156623 0.1716477
v -0.2321156 0.006663484 0.1716481
v 0.2268566 0.01196653 0.1711891
v 0.2271042 0.2389537 0.1532512
v 0.2323799 0.2447522 0.1527925
v -0.2265923 0.2394491 0.1532516
v -0.2318555 0.245259 0.1527929
v -0.22684 0.01246177 0.1711894
v -0.2321156 0.006663484 0.1716481
v -0.2265923 0.2394491 0.1532516
v 0.2271042 0.2389537 0.1532512
v 0.2261984 0.01287412 0.172356
v 0.2264439 0.2383393 0.1544147
v 0.2268566 0.01196653 0.1711891
v -0.2261796 0.01336798 0.1723564
v -0.22684 0.01246177 0.1711894
v -0.2261796 0.01336798 0.1723564
v -0.22684 0.01246177 0.1711894
v -0.2265923 0.2394491 0.1532516
v -0.2259334 0.2388332 0.154415
v 0.2271042 0.2389537 0.1532512
v 0.2264439 0.2383393 0.1544147
v 0.2298038 0.02456658 0.2764141
v 0.2264439 0.2383393 0.1544147
v 0.2261984 0.01287412 0.172356
v 0.2300521 0.2520618 0.2478294
v 0.2338836 0.03986463 0.3941823
v 0.2341347 0.2696575 0.3535519
v 0.2375321 0.05539157 0.4994682
v 0.2377852 0.2872386 0.4480691
v 0.2298038 0.02456658 0.2764141
v 0.2261984 0.01287412 0.172356
v -0.2261796 0.01336798 0.1723564
v -0.2297552 0.02506824 0.2764144
v -0.2338018 0.0403753 0.3941826
v 0.2338836 0.03986463 0.3941823
v -0.2374197 0.05591022 0.4994687
v 0.2375321 0.05539157 0.4994682
v 0.2300521 0.2520618 0.2478294
v -0.2259334 0.2388332 0.154415
v 0.2264439 0.2383393 0.1544147
v -0.2295069 0.2525636 0.2478297
v -0.2335514 0.2701681 0.3535523
v 0.2341347 0.2696575 0.3535519
v -0.2371672 0.287757 0.4480695
v 0.2377852 0.2872386 0.4480691
v -0.2335514 0.2701681 0.3535523
v -0.2371672 0.287757 0.4480695
v -0.2374197 0.05591022 0.4994687
v -0.2338018 0.0403753 0.3941826
v -0.2295069 0.2525636 0.2478297
v -0.2297552 0.02506824 0.2764144
v -0.2261796 0.01336798 0.1723564
v -0.2259334 0.2388332 0.154415
v 0.2375321 0.05539157 0.4994682
v -0.2374197 0.05591022 0.4994687
v -0.2371672 0.287757 0.4480695
v 0.2377852 0.2872386 0.4480691
vt 0.7744141 0.9990234
vt 0.7744141 0.9770508
vt 0.2476807 0.9770508
vt 0.2474365 0.9990234
vt 0.7705078 0.8588867
vt 0.7744141 0.9770508
vt 0.7744141 0.9990234
vt 0.7700195 0.894043
vt 0.765625 0.7763672
vt 0.7661133 0.7592773
vt 0.762207 0.6762695
vt 0.7617188 0.6762695
vt 0.7744141 0.9990234
vt 0.2474365 0.9990234
vt 0.2514648 0.894043
vt 0.7700195 0.894043
vt 0.765625 0.7763672
vt 0.2558594 0.7763672
vt 0.2597656 0.6762695
vt 0.7617188 0.6762695
vt 0.2474365 0.9990234
vt 0.2476807 0.9770508
vt 0.251709 0.8588867
vt 0.2514648 0.894043
vt 0.2558594 0.7763672
vt 0.2561035 0.7592773
vt 0.2602539 0.6762695
vt 0.2597656 0.6762695
vt 0.251709 0.6669922
vt 0.2519531 0.6508789
vt 0.2519531 0.5566406
vt 0.251709 0.5610352
vt 0.2519531 0.4448242
vt 0.251709 0.4362793
vt 0.2519531 0.3513184
vt 0.251709 0.331543
vt 0.762207 0.6762695
vt 0.2602539 0.6762695
vt 0.2561035 0.7592773
vt 0.7661133 0.7592773
vt 0.7705078 0.8588867
vt 0.251709 0.8588867
vt 0.7744141 0.9770508
vt 0.2476807 0.9770508
vt 0.762207 0.6762695
vt 0.7626953 0.6665039
vt 0.7626953 0.6665039
vt 0.7617188 0.6762695
vt 0.2592773 0.6665039
vt 0.2597656 0.6762695
vt 0.2592773 0.6665039
vt 0.253418 0.6689453
vt 0.7680664 0.6689453
vt 0.7626953 0.6665039
vt 0.7626953 0.6665039
vt 0.7685547 0.65625
vt 0.2595215 0.6665039
vt 0.2536621 0.65625
vt 0.2592773 0.6665039
vt 0.2595215 0.6665039
vt 0.253418 0.6689453
vt 0.7685547 0.65625
vt 0.7680664 0.6689453
vt 0.7700195 0.6669922
vt 0.7700195 0.6508789
vt 0.2519531 0.6508789
vt 0.2536621 0.65625
vt 0.251709 0.6669922
vt 0.253418 0.6689453
vt 0.2592773 0.6665039
vt 0.2597656 0.6762695
vt 0.2602539 0.6762695
vt 0.2595215 0.6665039
vt 0.762207 0.6762695
vt 0.7626953 0.6665039
vt 0.7680664 0.6689453
vt 0.253418 0.6689453
vt 0.251709 0.6669922
vt 0.7700195 0.6669922
vt 0.7700195 0.6508789
vt 0.7700195 0.6669922
vt 0.7700195 0.5610352
vt 0.7700195 0.5566406
vt 0.7700195 0.4448242
vt 0.7700195 0.4362793
vt 0.7700195 0.331543
vt 0.7700195 0.3513184
vt 0.7700195 0.5610352
vt 0.7700195 0.6669922
vt 0.251709 0.6669922
vt 0.251709 0.5610352
vt 0.7700195 0.4362793
vt 0.251709 0.4362793
vt 0.7700195 0.331543
vt 0.251709 0.331543
vt 0.7700195 0.5566406
vt 0.2519531 0.6508789
vt 0.7700195 0.6508789
vt 0.2519531 0.5566406
vt 0.2519531 0.4448242
vt 0.7700195 0.4448242
vt 0.2519531 0.3513184
vt 0.7700195 0.3513184
vt 0.253418 0.3291016
vt 0.251709 0.331543
vt 0.2519531 0.3513184
vt 0.2536621 0.3447266
vt 0.7700195 0.3513184
vt 0.7685547 0.3447266
vt 0.7680664 0.3291016
vt 0.7700195 0.331543
vt 0.7700195 0.331543
vt 0.251709 0.331543
vt 0.253418 0.3291016
vt 0.7680664 0.3291016
vt 0.2592773 0.3317871
vt 0.7680664 0.3291016
vt 0.253418 0.3291016
vt 0.7626953 0.3317871
vt 0.7626953 0.3317871
vt 0.7685547 0.3447266
vt 0.2595215 0.3317871
vt 0.2536621 0.3447266
vt 0.2592773 0.3317871
vt 0.253418 0.3291016
vt 0.2595215 0.3317871
vt 0.7626953 0.3317871
vt 0.7617188 0.3261719
vt 0.762207 0.326416
vt 0.7626953 0.3317871
vt 0.2600098 0.3261719
vt 0.2592773 0.3317871
vt 0.2600098 0.3261719
vt 0.2592773 0.3317871
vt 0.2595215 0.3317871
vt 0.2602539 0.326416
vt 0.7626953 0.3317871
vt 0.762207 0.326416
vt 0.765625 0.2252197
vt 0.762207 0.326416
vt 0.7617188 0.3261719
vt 0.7661133 0.239624
vt 0.7700195 0.1074829
vt 0.7705078 0.1413574
vt 0.7744141 0.002292633
vt 0.7744141 0.02038574
vt 0.765625 0.2252197
vt 0.7617188 0.3261719
vt 0.2600098 0.3261719
vt 0.2558594 0.2252197
vt 0.2514648 0.1074829
vt 0.7700195 0.1074829
vt 0.2474365 0.002292633
vt 0.7744141 0.002292633
vt 0.7661133 0.239624
vt 0.2602539 0.326416
vt 0.762207 0.326416
vt 0.2561035 0.239624
vt 0.251709 0.1413574
vt 0.7705078 0.1413574
vt 0.2476807 0.02038574
vt 0.7744141 0.02038574
vt 0.251709 0.1413574
vt 0.2476807 0.02038574
vt 0.2474365 0.002292633
vt 0.2514648 0.1074829
vt 0.2561035 0.239624
vt 0.2558594 0.2252197
vt 0.2600098 0.3261719
vt 0.2602539 0.326416
vt 0.7744141 0.002292633
vt 0.2474365 0.002292633
vt 0.2476807 0.02038574
vt 0.7744141 0.02038574
vn 0.0002359152 0.2164307 -0.9760742
vn 0.0002359152 0.2164307 -0.9760742
vn 0.0002359152 0.2164307 -0.9760742
vn 0.0002359152 0.2164307 -0.9760742
vn 0.9995117 -0.007286072 0.03533936
vn 0.9995117 -0.008102417 0.03515625
vn 0.9995117 -0.008102417 0.03515625
vn 0.9995117 -0.007305145 0.03533936
vn 0.9995117 -0.005626678 0.03570557
vn 0.9995117 -0.005641937 0.03570557
vn 0.9995117 -0.004779816 0.03588867
vn 0.9995117 -0.004779816 0.03588867
vn -0.001080513 -0.9892578 -0.145874
vn -0.001080513 -0.9892578 -0.145874
vn -0.001081467 -0.9907227 -0.1375732
vn -0.001081467 -0.9907227 -0.1375732
vn -0.001083374 -0.9926758 -0.1204834
vn -0.001083374 -0.9926758 -0.1204834
vn -0.001085281 -0.9936523 -0.1116943
vn -0.001085281 -0.9936523 -0.1116943
vn -0.9995117 -0.005924225 0.03518677
vn -0.9995117 -0.005924225 0.03518677
vn -0.9995117 -0.00510788 0.03536987
vn -0.9995117 -0.005126953 0.03536987
vn -0.9995117 -0.003444672 0.03570557
vn -0.9995117 -0.003458023 0.03570557
vn -0.9995117 -0.002593994 0.03585815
vn -0.9995117 -0.002593994 0.03585815
vn -1 0.00109005 5.114079E-05
vn -1 0.00109005 5.114079E-05
vn -1 0.001091957 2.551079E-05
vn -1 0.001091957 2.56896E-05
vn -1 0.001091957 -2.545118E-05
vn -1 0.001091957 -2.563E-05
vn -1 0.00109005 -5.108118E-05
vn -1 0.00109005 -5.108118E-05
vn 0.001080513 0.9892578 0.1453857
vn 0.001080513 0.9892578 0.1453857
vn 0.001078606 0.987793 0.1550293
vn 0.001078606 0.987793 0.1550293
vn 0.001075745 0.9848633 0.1738281
vn 0.001075745 0.9848633 0.1738281
vn 0.001073837 0.9829102 0.1828613
vn 0.001073837 0.9829102 0.1828613
vn 0.5888672 0.6103516 -0.5297852
vn 0.5551758 -0.5375977 -0.6347656
vn 0.578125 0.6210938 -0.5297852
vn 0.5961914 -0.4987793 -0.6293945
vn -0.5561523 -0.5361328 -0.6347656
vn -0.597168 -0.4975586 -0.6293945
vn 8.052588E-05 0.07879639 -0.9970703
vn 8.094311E-05 0.07879639 -0.9970703
vn 8.499622E-05 0.07879639 -0.9970703
vn 8.499622E-05 0.07879639 -0.9970703
vn 8.499622E-05 0.07879639 -0.9970703
vn 8.499622E-05 0.07879639 -0.9970703
vn 8.052588E-05 0.07879639 -0.9970703
vn 8.08835E-05 0.07879639 -0.9970703
vn 8.052588E-05 0.07879639 -0.9970703
vn 8.052588E-05 0.07879639 -0.9970703
vn 8.094311E-05 0.07879639 -0.9970703
vn 0.4645996 0.4726563 -0.7485352
vn 0.4663086 -0.3945313 -0.7919922
vn 0.451416 -0.4091797 -0.7929688
vn 0.4375 0.4978027 -0.7490234
vn -0.4362793 0.4987793 -0.7490234
vn -0.4638672 0.4736328 -0.7485352
vn -0.4523926 -0.4082031 -0.7929688
vn -0.4672852 -0.3935547 -0.7915039
vn -0.5561523 -0.5361328 -0.6347656
vn -0.597168 -0.4975586 -0.6293945
vn -0.5874023 0.6113281 -0.5297852
vn -0.5761719 0.6225586 -0.5297852
vn 0.5888672 0.6103516 -0.5297852
vn 0.578125 0.6210938 -0.5297852
vn 0.4663086 -0.3945313 -0.7919922
vn -0.4672852 -0.3935547 -0.7915039
vn -0.4523926 -0.4082031 -0.7929688
vn 0.451416 -0.4091797 -0.7929688
vn 1 -0.001087189 -5.102158E-05
vn 1 -0.001087189 -5.102158E-05
vn 1 -0.001089096 -2.563E-05
vn 1 -0.001089096 -2.545118E-05
vn 1 -0.001089096 2.539158E-05
vn 1 -0.001089096 2.557039E-05
vn 1 -0.001087189 5.096197E-05
vn 1 -0.001087189 5.096197E-05
vn -0.001091003 -0.9995117 -0.0221405
vn -0.001091003 -0.9990234 -0.04425049
vn -0.001091003 -0.9990234 -0.04425049
vn -0.001091003 -0.9995117 -0.0221405
vn -0.001091003 -0.9995117 0.02209473
vn -0.001091003 -0.9995117 0.02209473
vn -0.00109005 -0.9990234 0.04418945
vn -0.00109005 -0.9990234 0.04418945
vn 0.001091003 0.9995117 0.02490234
vn 0.00109005 0.9985352 0.04977417
vn 0.00109005 0.9985352 0.04977417
vn 0.001091003 0.9995117 0.02490234
vn 0.001091003 0.9995117 -0.02485657
vn 0.001091003 0.9995117 -0.02485657
vn 0.001091003 0.9985352 -0.04971313
vn 0.001091003 0.9985352 -0.04971313
vn -0.5532227 -0.4938965 0.6708984
vn -0.5429688 -0.5043945 0.6713867
vn -0.5234375 0.5810547 0.6235352
vn -0.5498047 0.5556641 0.6235352
vn 0.5244141 0.5795898 0.6235352
vn 0.5512695 0.5546875 0.6235352
vn 0.5522461 -0.4951172 0.6708984
vn 0.5415039 -0.5053711 0.6713867
vn 0.5415039 -0.5053711 0.6713867
vn -0.5429688 -0.5043945 0.6713867
vn -0.5532227 -0.4938965 0.6708984
vn 0.5522461 -0.4951172 0.6708984
vn 8.571148E-05 0.07879639 0.9970703
vn 9.006262E-05 0.07879639 0.9970703
vn 8.583069E-05 0.07879639 0.9970703
vn 9.036064E-05 0.07879639 0.9970703
vn 9.042025E-05 0.07879639 0.9970703
vn 9.012222E-05 0.07879639 0.9970703
vn 8.577108E-05 0.07879639 0.9970703
vn 8.583069E-05 0.07879639 0.9970703
vn 8.571148E-05 0.07879639 0.9970703
vn 8.583069E-05 0.07879639 0.9970703
vn 8.577108E-05 0.07879639 0.9970703
vn 0.5405273 0.5883789 0.6010742
vn 0.5605469 -0.458252 0.6894531
vn 0.5537109 0.5756836 0.6015625
vn 0.5200195 -0.496582 0.6953125
vn -0.5615234 -0.4570313 0.6894531
vn -0.5209961 -0.4956055 0.6953125
vn -0.5615234 -0.4570313 0.6894531
vn -0.5209961 -0.4956055 0.6953125
vn -0.5390625 0.5898438 0.6010742
vn -0.5527344 0.5766602 0.6015625
vn 0.5405273 0.5883789 0.6010742
vn 0.5537109 0.5756836 0.6015625
vn 0.9995117 -0.005626678 -0.03570557
vn 0.9995117 -0.004776001 -0.03588867
vn 0.9995117 -0.004776001 -0.03588867
vn 0.9995117 -0.005641937 -0.03570557
vn 0.9995117 -0.007305145 -0.03533936
vn 0.9995117 -0.007286072 -0.03536987
vn 0.9995117 -0.008102417 -0.03515625
vn 0.9995117 -0.008102417 -0.03515625
vn -0.001083374 -0.9926758 0.1204834
vn -0.001084328 -0.9936523 0.1116943
vn -0.001084328 -0.9936523 0.1116943
vn -0.001083374 -0.9926758 0.1204834
vn -0.001081467 -0.9907227 0.1375732
vn -0.001081467 -0.9907227 0.1375732
vn -0.001080513 -0.9892578 0.145874
vn -0.001080513 -0.9892578 0.145874
vn 0.001078606 0.987793 -0.1550293
vn 0.001080513 0.9892578 -0.1453857
vn 0.001080513 0.9892578 -0.1453857
vn 0.001078606 0.987793 -0.1550293
vn 0.001074791 0.9848633 -0.1738281
vn 0.001074791 0.9848633 -0.1738281
vn 0.001072884 0.9829102 -0.1828613
vn 0.001072884 0.9829102 -0.1828613
vn -0.9995117 -0.00510788 -0.03536987
vn -0.9995117 -0.00592804 -0.03518677
vn -0.9995117 -0.00592804 -0.03518677
vn -0.9995117 -0.005130768 -0.03536987
vn -0.9995117 -0.003456116 -0.03570557
vn -0.9995117 -0.003442764 -0.03570557
vn -0.9995117 -0.002590179 -0.03585815
vn -0.9995117 -0.002590179 -0.03585815
vn 0.0002372265 0.2164307 0.9760742
vn 0.0002372265 0.2164307 0.9760742
vn 0.0002372265 0.2164307 0.9760742
vn 0.0002372265 0.2164307 0.9760742
g CashModel_0
f 3/3/3 2/2/2 1/1/1
f 4/4/4 3/3/3 1/1/1
f 7/7/7 6/6/6 5/5/5
f 8/8/8 7/7/7 5/5/5
f 8/8/8 5/5/5 9/9/9
f 5/5/5 10/10/10 9/9/9
f 9/9/9 10/10/10 11/11/11
f 12/12/12 9/9/9 11/11/11
f 15/15/15 14/14/14 13/13/13
f 16/16/16 15/15/15 13/13/13
f 15/15/15 16/16/16 17/17/17
f 18/18/18 15/15/15 17/17/17
f 19/19/19 18/18/18 17/17/17
f 20/20/20 19/19/19 17/17/17
f 23/23/23 22/22/22 21/21/21
f 24/24/24 23/23/23 21/21/21
f 23/23/23 24/24/24 25/25/25
f 26/26/26 23/23/23 25/25/25
f 27/27/27 26/26/26 25/25/25
f 28/28/28 27/27/27 25/25/25
f 31/31/31 30/30/30 29/29/29
f 32/32/32 31/31/31 29/29/29
f 33/33/33 31/31/31 32/32/32
f 34/34/34 33/33/33 32/32/32
f 33/33/33 34/34/34 35/35/35
f 34/34/34 36/36/36 35/35/35
f 39/39/39 38/38/38 37/37/37
f 40/40/40 39/39/39 37/37/37
f 40/40/40 41/41/41 39/39/39
f 41/41/41 42/42/42 39/39/39
f 41/41/41 43/43/43 42/42/42
f 43/43/43 44/44/44 42/42/42
f 47/47/47 46/46/46 45/45/45
f 46/46/46 48/48/48 45/45/45
f 46/46/46 49/49/49 48/48/48
f 49/49/49 50/50/50 48/48/48
f 53/53/53 52/52/52 51/51/51
f 54/54/54 53/53/53 51/51/51
f 54/54/54 55/55/55 53/53/53
f 55/55/55 56/56/56 53/53/53
f 56/56/56 55/55/55 57/57/57
f 58/58/58 56/56/56 57/57/57
f 58/58/58 60/60/60 59/59/59
f 61/61/61 58/58/58 59/59/59
f 64/64/64 63/63/63 62/62/62
f 65/65/65 64/64/64 62/62/62
f 65/65/65 62/62/62 66/66/66
f 62/62/62 67/67/67 66/66/66
f 66/66/66 67/67/67 68/68/68
f 67/67/67 69/69/69 68/68/68
f 72/72/72 71/71/71 70/70/70
f 73/73/73 72/72/72 70/70/70
f 74/74/74 72/72/72 73/73/73
f 75/75/75 74/74/74 73/73/73
f 78/78/78 77/77/77 76/76/76
f 79/79/79 78/78/78 76/76/76
f 82/82/82 81/81/81 80/80/80
f 83/83/83 82/82/82 80/80/80
f 82/82/82 83/83/83 84/84/84
f 85/85/85 82/82/82 84/84/84
f 85/85/85 84/84/84 86/86/86
f 84/84/84 87/87/87 86/86/86
f 90/90/90 89/89/89 88/88/88
f 91/91/91 90/90/90 88/88/88
f 88/88/88 92/92/92 91/91/91
f 92/92/92 93/93/93 91/91/91
f 93/93/93 92/92/92 94/94/94
f 95/95/95 93/93/93 94/94/94
f 98/98/98 97/97/97 96/96/96
f 97/97/97 99/99/99 96/96/96
f 96/96/96 99/99/99 100/100/100
f 101/101/101 96/96/96 100/100/100
f 100/100/100 102/102/102 101/101/101
f 102/102/102 103/103/103 101/101/101
f 106/106/106 105/105/105 104/104/104
f 107/107/107 106/106/106 104/104/104
f 108/108/108 106/106/106 107/107/107
f 109/109/109 108/108/108 107/107/107
f 109/109/109 110/110/110 108/108/108
f 110/110/110 111/111/111 108/108/108
f 114/114/114 113/113/113 112/112/112
f 115/115/115 114/114/114 112/112/112
f 118/118/118 117/117/117 116/116/116
f 117/117/117 119/119/119 116/116/116
f 120/120/120 119/119/119 117/117/117
f 121/121/121 120/120/120 117/117/117
f 120/120/120 121/121/121 122/122/122
f 121/121/121 123/123/123 122/122/122
f 123/123/123 125/125/125 124/124/124
f 126/126/126 123/123/123 124/124/124
f 129/129/129 128/128/128 127/127/127
f 128/128/128 130/130/130 127/127/127
f 128/128/128 131/131/131 130/130/130
f 131/131/131 132/132/132 130/130/130
f 135/135/135 134/134/134 133/133/133
f 136/136/136 135/135/135 133/133/133
f 137/137/137 135/135/135 136/136/136
f 138/138/138 137/137/137 136/136/136
f 141/141/141 140/140/140 139/139/139
f 140/140/140 142/142/142 139/139/139
f 143/143/143 139/139/139 142/142/142
f 144/144/144 143/143/143 142/142/142
f 143/143/143 144/144/144 145/145/145
f 144/144/144 146/146/146 145/145/145
f 149/149/149 148/148/148 147/147/147
f 150/150/150 149/149/149 147/147/147
f 151/151/151 150/150/150 147/147/147
f 152/152/152 151/151/151 147/147/147
f 151/151/151 152/152/152 153/153/153
f 152/152/152 154/154/154 153/153/153
f 157/157/157 156/156/156 155/155/155
f 156/156/156 158/158/158 155/155/155
f 155/155/155 158/158/158 159/159/159
f 160/160/160 155/155/155 159/159/159
f 159/159/159 161/161/161 160/160/160
f 161/161/161 162/162/162 160/160/160
f 165/165/165 164/164/164 163/163/163
f 166/166/166 165/165/165 163/163/163
f 166/166/166 163/163/163 167/167/167
f 168/168/168 166/166/166 167/167/167
f 168/168/168 167/167/167 169/169/169
f 167/167/167 170/170/170 169/169/169
f 173/173/173 172/172/172 171/171/171
f 174/174/174 173/173/173 171/171/171
