g CircularSawMid
v 0.1301284 -0.04440572 -0.1843517
v 0.1451892 -0.02107961 -0.1408075
v 0.1625085 -0.04440573 -0.156541
v 0.1907834 -0.04440573 -0.1205018
v 0.1698703 -0.02107961 -0.1097766
v 0.2100461 -0.04440573 -0.08243544
v 0.1880234 -0.02107961 -0.07452685
v 0.2223771 -0.04440574 -0.03831887
v 0.1989508 -0.02107962 -0.03641296
v 0.2256061 -0.04440574 0.004221501
v 0.2022326 -0.02107962 0.003100416
v 0.2201155 -0.04440574 0.04969878
v 0.1977426 -0.02107962 0.0424948
v 0.2068191 -0.04440575 0.09023681
v 0.1856535 -0.02107962 0.08025628
v 0.184343 -0.04440575 0.1301515
v 0.1664297 -0.02107963 0.1149337
v 0.1565455 -0.04440575 0.1625155
v 0.1408101 -0.02107963 0.1451945
v 0.1205055 -0.04440575 0.1907908
v 0.1097792 -0.02107963 0.1698756
v 0.0824388 -0.04440575 0.2100537
v 0.07452951 -0.02107963 0.1880287
v 0.03832139 -0.04440576 0.222385
v 0.03641561 -0.02107963 0.1989561
v -0.004219444 -0.04440576 0.2256144
v -0.00309776 -0.02107963 0.2022379
v -0.04967655 -0.04440575 0.2201268
v -0.04249214 -0.02107963 0.1977479
v -0.09023503 -0.04440575 0.2068246
v -0.08025362 -0.02107963 0.1856588
v -0.1301315 -0.04440575 0.1843593
v -0.114931 -0.02107963 0.166435
v -0.1625119 -0.04440575 0.1565488
v -0.1451918 -0.02107963 0.1408154
v -0.1907872 -0.04440575 0.1205093
v -0.169873 -0.02107963 0.1097845
v -0.2100503 -0.04440575 0.08244279
v -0.188026 -0.02107962 0.07453477
v -0.2223818 -0.04440574 0.03832581
v -0.1989534 -0.02107962 0.03642089
v -0.2256113 -0.04440574 -0.004214975
v -0.2022352 -0.02107962 -0.003092492
v -0.2201238 -0.04440574 -0.04967189
v -0.1977452 -0.02107961 -0.04248687
v -0.2068217 -0.04440573 -0.09023032
v -0.1856561 -0.02107961 -0.08024835
v -0.1843566 -0.04440573 -0.1301267
v -0.1664324 -0.02107961 -0.1149258
v -0.1565461 -0.04440573 -0.1625071
v -0.1408128 -0.02107961 -0.1451865
v -0.1205069 -0.04440572 -0.1907824
v -0.1097818 -0.02107961 -0.1698677
v -0.0824405 -0.04440572 -0.2100457
v -0.07453211 -0.0210796 -0.1880208
v -0.03834432 -0.04440572 -0.2223714
v -0.03641823 -0.0210796 -0.1989482
v 0.00421702 -0.04440572 -0.2256027
v 0.003095148 -0.0210796 -0.2022299
v 0.04969424 -0.04440572 -0.2201127
v 0.04248952 -0.0210796 -0.19774
v 0.09023236 -0.04440572 -0.2068168
v 0.08025101 -0.0210796 -0.1856508
v 0.1149284 -0.02107961 -0.1664271
v -0.1097818 0.02107963 -0.1698677
v -0.07453211 0.02107963 -0.1880208
v -0.03641823 0.02107963 -0.1989482
v 0.003095148 0.02107963 -0.2022299
v 0.04248952 0.02107963 -0.19774
v 0.08025101 0.02107963 -0.1856508
v 0.1149284 0.02107963 -0.1664271
v 0.1451892 0.02107963 -0.1408075
v 0.1698703 0.02107963 -0.1097766
v 0.1625085 0.04440575 -0.156541
v 0.1880234 0.02107962 -0.07452685
v 0.1907834 0.04440575 -0.1205018
v 0.1989508 0.02107962 -0.03641296
v 0.2100462 0.04440575 -0.08243545
v 0.2022326 0.02107962 0.003100419
v 0.2223771 0.04440574 -0.03831886
v 0.1977426 0.02107961 0.0424948
v 0.225606 0.04440574 0.004221508
v 0.1856535 0.02107961 0.08025628
v 0.2201155 0.04440574 0.04969879
v 0.1664297 0.02107961 0.1149337
v 0.2068191 0.04440573 0.09023681
v 0.1408101 0.02107961 0.1451945
v 0.184343 0.04440573 0.1301515
v 0.1097792 0.02107961 0.1698756
v 0.1565455 0.04440573 0.1625155
v 0.07452951 0.0210796 0.1880287
v 0.1205055 0.04440572 0.1907908
v 0.03641561 0.0210796 0.1989561
v 0.0824388 0.04440572 0.2100537
v -0.00309776 0.0210796 0.2022379
v 0.03832139 0.04440572 0.222385
v -0.04249214 0.0210796 0.1977479
v -0.004219444 0.04440572 0.2256144
v -0.08025362 0.0210796 0.1856588
v -0.04967655 0.04440572 0.2201268
v -0.114931 0.02107961 0.166435
v -0.09023503 0.04440572 0.2068246
v -0.1451918 0.02107961 0.1408154
v -0.1301315 0.04440572 0.1843593
v -0.169873 0.02107961 0.1097845
v -0.1625119 0.04440573 0.1565488
v -0.188026 0.02107961 0.07453477
v -0.1907872 0.04440573 0.1205093
v -0.1989534 0.02107962 0.03642089
v -0.2100504 0.04440573 0.08244279
v -0.2022352 0.02107962 -0.003092489
v -0.2223818 0.04440574 0.03832582
v -0.1977452 0.02107962 -0.04248687
v -0.2256113 0.04440574 -0.004214968
v -0.1856561 0.02107962 -0.08024835
v -0.2201238 0.04440574 -0.04967188
v -0.1664324 0.02107963 -0.1149258
v -0.2068217 0.04440575 -0.09023032
v -0.1408128 0.02107963 -0.1451865
v -0.1843566 0.04440575 -0.1301267
v -0.1565461 0.04440575 -0.1625071
v -0.1205069 0.04440575 -0.1907824
v -0.0824405 0.04440575 -0.2100457
v -0.03834432 0.04440576 -0.2223714
v 0.00421702 0.04440576 -0.2256027
v 0.04969424 0.04440575 -0.2201127
v 0.09023236 0.04440575 -0.2068168
v 0.1301284 0.04440575 -0.1843517
v -0.1785207 0.04440577 -0.3035593
v -0.2401771 0.04440577 -0.2544957
v -0.1245036 0.04440577 -0.327035
v -0.2811768 0.04440576 -0.2120258
v -0.04889711 0.04440577 -0.348747
v -0.319286 0.04440576 -0.1432114
v 0.01012471 0.04440577 -0.3497865
v -0.3409123 0.04440575 -0.08828462
v 0.08841582 0.04440577 -0.340882
v -0.3497863 0.04440575 -0.01012457
v 0.1432115 0.04440577 -0.319286
v -0.3487691 0.04440574 0.04876463
v 0.2120256 0.04440577 -0.2811771
v -0.327035 0.04440574 0.1245035
v 0.2544955 0.04440577 -0.2401772
v -0.3035592 0.04440573 0.1785207
v 0.3035594 0.04440576 -0.1785204
v -0.2544955 0.04440573 0.2401772
v 0.327035 0.04440576 -0.1245036
v -0.2120259 0.04440572 0.2811768
v 0.3487691 0.04440575 -0.04876404
v -0.1432114 0.04440572 0.3192861
v 0.3497864 0.04440575 0.01012477
v -0.08828457 0.04440572 0.3409123
v 0.340882 0.04440574 0.08841524
v -0.01012465 0.04440572 0.3497865
v 0.3192859 0.04440574 0.1432114
v 0.04876409 0.04440572 0.348769
v 0.2810984 0.04440573 0.2121355
v 0.1245036 0.04440572 0.327035
v 0.2401771 0.04440573 0.2544956
v 0.1785205 0.04440572 0.3035594
vt 0.4345703 0
vt 0 0
vt 0.4353027 0
vt 0.4343262 0
vt 0 0
vt 0.4353027 0
vt 0 0
vt 0.4343262 0
vt 0 0
vt 0.4353027 0
vt 0 0
vt 0.4343262 0
vt 0 0
vt 0.4353027 0
vt 0 0
vt 0.4343262 0
vt 0 0
vt 0.4353027 0
vt 0 0
vt 0.4343262 0
vt 0 0
vt 0.4353027 0
vt 0 0
vt 0.4343262 0
vt 0 0
vt 0.4353027 0
vt 0 0
vt 0.4345703 0
vt 0 0
vt 0.4353027 0
vt 0 0
vt 0.4345703 0
vt 0 0
vt 0.4353027 0
vt 0 0
vt 0.4343262 0
vt 0 0
vt 0.4353027 0
vt 0 0
vt 0.4343262 0
vt 0 0
vt 0.4353027 0
vt 0 0
vt 0.4345703 0
vt 0 0
vt 0.4353027 0
vt 0 0
vt 0.4345703 0
vt 0 0
vt 0.4353027 0
vt 0 0
vt 0.4343262 0
vt 0 0
vt 0.4353027 0
vt 0 0
vt 0.4345703 0
vt 0 0
vt 0.4353027 0
vt 0 0
vt 0.4343262 0
vt 0 0
vt 0.4353027 0
vt 0 0
vt 0 0
vt 0 0
vt 0 0
vt 0 0
vt 0 0
vt 0 0
vt 0 0
vt 0 0
vt 0 0
vt 0 0
vt 0.4353027 0
vt 0 0
vt 0.4343262 0
vt 0 0
vt 0.4353027 0
vt 0 0
vt 0.4343262 0
vt 0 0
vt 0.4353027 0
vt 0 0
vt 0.4343262 0
vt 0 0
vt 0.4353027 0
vt 0 0
vt 0.4343262 0
vt 0 0
vt 0.4353027 0
vt 0 0
vt 0.4343262 0
vt 0 0
vt 0.4353027 0
vt 0 0
vt 0.4343262 0
vt 0 0
vt 0.4353027 0
vt 0 0
vt 0.4345703 0
vt 0 0
vt 0.4353027 0
vt 0 0
vt 0.4345703 0
vt 0 0
vt 0.4353027 0
vt 0 0
vt 0.4343262 0
vt 0 0
vt 0.4353027 0
vt 0 0
vt 0.4343262 0
vt 0 0
vt 0.4353027 0
vt 0 0
vt 0.4345703 0
vt 0 0
vt 0.4353027 0
vt 0 0
vt 0.4345703 0
vt 0.4353027 0
vt 0.4343262 0
vt 0.4353027 0
vt 0.4345703 0
vt 0.4353027 0
vt 0.4343262 0
vt 0.4353027 0
vt 0.4345703 0
vt 0.434082 0
vt 0.4355469 0
vt 0.4355469 0
vt 0.434082 0
vt 0.434082 0
vt 0.4355469 0
vt 0.4355469 0
vt 0.434082 0
vt 0.434082 0
vt 0.4355469 0
vt 0.4355469 0
vt 0.434082 0
vt 0.434082 0
vt 0.4355469 0
vt 0.4355469 0
vt 0.434082 0
vt 0.434082 0
vt 0.4355469 0
vt 0.4355469 0
vt 0.434082 0
vt 0.434082 0
vt 0.4355469 0
vt 0.4355469 0
vt 0.434082 0
vt 0.434082 0
vt 0.4355469 0
vt 0.4355469 0
vt 0.434082 0
vt 0.434082 0
vt 0.4355469 0
vt 0.4355469 0
vt 0.434082 0
vn -0.4057617 -0.7080078 0.5776367
vn -0.6611328 -0.3920898 0.6396484
vn -0.5092773 -0.7080078 0.4890137
vn -0.5961914 -0.7080078 0.3786621
vn -0.7724609 -0.3920898 0.4995117
vn -0.6577148 -0.7080078 0.2568359
vn -0.8554688 -0.3920898 0.3381348
vn -0.6953125 -0.7080078 0.1217041
vn -0.9047852 -0.3920898 0.1658936
vn -0.7060547 -0.7080078 -0.014328
vn -0.9199219 -0.3920898 -0.01502228
vn -0.6889648 -0.7080078 -0.1536865
vn -0.8994141 -0.3920898 -0.1929932
vn -0.6469727 -0.7080078 -0.2834473
vn -0.8442383 -0.3920898 -0.3659668
vn -0.5776367 -0.7080078 -0.4057617
vn -0.7573242 -0.3920898 -0.5224609
vn -0.4890137 -0.7080078 -0.5092773
vn -0.6396484 -0.3920898 -0.6611328
vn -0.3786621 -0.7080078 -0.5957031
vn -0.4995117 -0.3920898 -0.7724609
vn -0.2568359 -0.7080078 -0.6577148
vn -0.3381348 -0.3920898 -0.8554688
vn -0.1217041 -0.7080078 -0.6953125
vn -0.1658936 -0.3920898 -0.9047852
vn 0.01432037 -0.7080078 -0.7060547
vn 0.01502228 -0.3920898 -0.9199219
vn 0.1536865 -0.7080078 -0.6889648
vn 0.1929932 -0.3920898 -0.8994141
vn 0.2834473 -0.7080078 -0.6469727
vn 0.3659668 -0.3920898 -0.8442383
vn 0.4057617 -0.7080078 -0.5776367
vn 0.5224609 -0.3920898 -0.7573242
vn 0.5092773 -0.7080078 -0.4890137
vn 0.6611328 -0.3920898 -0.6396484
vn 0.5961914 -0.7080078 -0.3786621
vn 0.7724609 -0.3920898 -0.4995117
vn 0.6577148 -0.7080078 -0.2568359
vn 0.8554688 -0.3920898 -0.3381348
vn 0.6953125 -0.7080078 -0.1217041
vn 0.9047852 -0.3920898 -0.1658936
vn 0.7060547 -0.7080078 0.01432037
vn 0.9199219 -0.3920898 0.01502228
vn 0.6889648 -0.7080078 0.1536865
vn 0.8994141 -0.3920898 0.1929932
vn 0.6469727 -0.7080078 0.2834473
vn 0.8442383 -0.3920898 0.3659668
vn 0.5776367 -0.7080078 0.4057617
vn 0.7573242 -0.3920898 0.5224609
vn 0.4890137 -0.7080078 0.5092773
vn 0.6396484 -0.3920898 0.6611328
vn 0.3786621 -0.7080078 0.5961914
vn 0.4995117 -0.3920898 0.7724609
vn 0.2568359 -0.7080078 0.6577148
vn 0.3381348 -0.3920898 0.8554688
vn 0.1217651 -0.7080078 0.6953125
vn 0.1658936 -0.3920898 0.9047852
vn -0.014328 -0.7080078 0.7060547
vn -0.01502228 -0.3920898 0.9199219
vn -0.1536865 -0.7080078 0.6889648
vn -0.1929932 -0.3920898 0.8994141
vn -0.2834473 -0.7080078 0.6469727
vn -0.3659668 -0.3920898 0.8442383
vn -0.5224609 -0.3920898 0.7573242
vn 0.4995117 0.3920898 0.7724609
vn 0.3381348 0.3920898 0.8554688
vn 0.1658936 0.3920898 0.9047852
vn -0.01502228 0.3920898 0.9199219
vn -0.1929932 0.3920898 0.8994141
vn -0.3659668 0.3920898 0.8442383
vn -0.5224609 0.3920898 0.7573242
vn -0.6611328 0.3920898 0.6396484
vn -0.7724609 0.3920898 0.4995117
vn -0.2607422 0.9326172 0.2502441
vn -0.8554688 0.3920898 0.3381348
vn -0.3049316 0.9326172 0.1937256
vn -0.9047852 0.3920898 0.1658936
vn -0.3366699 0.9326172 0.1314697
vn -0.9199219 0.3920898 -0.01502228
vn -0.3557129 0.9326172 0.06225586
vn -0.8994141 0.3920898 -0.1929932
vn -0.3613281 0.9326172 -0.007331848
vn -0.8442383 0.3920898 -0.3659668
vn -0.3525391 0.9326172 -0.07861328
vn -0.7573242 0.3920898 -0.5224609
vn -0.3310547 0.9326172 -0.1450195
vn -0.6396484 0.3920898 -0.6611328
vn -0.2956543 0.9326172 -0.2075195
vn -0.4995117 0.3920898 -0.7724609
vn -0.2502441 0.9326172 -0.2607422
vn -0.3381348 0.3920898 -0.8554688
vn -0.1937256 0.9326172 -0.3049316
vn -0.1658936 0.3920898 -0.9047852
vn -0.1314697 0.9326172 -0.3366699
vn 0.01502228 0.3920898 -0.9199219
vn -0.06225586 0.9326172 -0.3557129
vn 0.1929932 0.3920898 -0.8994141
vn 0.007328033 0.9326172 -0.3613281
vn 0.3659668 0.3920898 -0.8442383
vn 0.07861328 0.9326172 -0.3525391
vn 0.5224609 0.3920898 -0.7573242
vn 0.1450195 0.9326172 -0.3310547
vn 0.6611328 0.3920898 -0.6396484
vn 0.2075195 0.9326172 -0.2956543
vn 0.7724609 0.3920898 -0.4995117
vn 0.2607422 0.9326172 -0.2502441
vn 0.8554688 0.3920898 -0.3381348
vn 0.3049316 0.9326172 -0.1937256
vn 0.9047852 0.3920898 -0.1658936
vn 0.3366699 0.9326172 -0.1314697
vn 0.9199219 0.3920898 0.01502228
vn 0.3557129 0.9326172 -0.06225586
vn 0.8994141 0.3920898 0.1929932
vn 0.3613281 0.9326172 0.007331848
vn 0.8442383 0.3920898 0.3659668
vn 0.3525391 0.9326172 0.07861328
vn 0.7573242 0.3920898 0.5224609
vn 0.3310547 0.9326172 0.1450195
vn 0.6396484 0.3920898 0.6611328
vn 0.2956543 0.9326172 0.2075195
vn 0.2502441 0.9326172 0.2607422
vn 0.1937256 0.9326172 0.3049316
vn 0.1314697 0.9326172 0.3366699
vn 0.06228638 0.9326172 0.3557129
vn -0.007331848 0.9326172 0.3613281
vn -0.07861328 0.9326172 0.3525391
vn -0.1450195 0.9326172 0.3310547
vn -0.2075195 0.9326172 0.2956543
vn 0 1 0
vn 0 1 0
vn 0 1 0
vn 0 1 0
vn 0 1 0
vn 0 1 0
vn 0 1 0
vn 0 1 0
vn 0 1 0
vn 0 1 0
vn 0 1 0
vn 0 1 0
vn 0 1 0
vn 0 1 0
vn 0 1 0
vn 0 1 0
vn 0 1 0
vn 0 1 0
vn 0 1 0
vn 0 1 0
vn 0 1 0
vn 0 1 0
vn 0 1 0
vn 0 1 0
vn 0 1 0
vn 0 1 0
vn 0 1 0
vn 0 1 0
vn 0 1 0
vn 0 1 0
vn 0 1 0
vn 0 1 0
g CircularSawMid_0
f 3/3/3 2/2/2 1/1/1
f 3/3/3 4/4/4 2/2/2
f 4/4/4 5/5/5 2/2/2
f 4/4/4 6/6/6 5/5/5
f 6/6/6 7/7/7 5/5/5
f 6/6/6 8/8/8 7/7/7
f 8/8/8 9/9/9 7/7/7
f 8/8/8 10/10/10 9/9/9
f 10/10/10 11/11/11 9/9/9
f 10/10/10 12/12/12 11/11/11
f 12/12/12 13/13/13 11/11/11
f 12/12/12 14/14/14 13/13/13
f 14/14/14 15/15/15 13/13/13
f 14/14/14 16/16/16 15/15/15
f 16/16/16 17/17/17 15/15/15
f 16/16/16 18/18/18 17/17/17
f 18/18/18 19/19/19 17/17/17
f 18/18/18 20/20/20 19/19/19
f 20/20/20 21/21/21 19/19/19
f 20/20/20 22/22/22 21/21/21
f 22/22/22 23/23/23 21/21/21
f 22/22/22 24/24/24 23/23/23
f 24/24/24 25/25/25 23/23/23
f 24/24/24 26/26/26 25/25/25
f 26/26/26 27/27/27 25/25/25
f 26/26/26 28/28/28 27/27/27
f 28/28/28 29/29/29 27/27/27
f 28/28/28 30/30/30 29/29/29
f 30/30/30 31/31/31 29/29/29
f 30/30/30 32/32/32 31/31/31
f 32/32/32 33/33/33 31/31/31
f 32/32/32 34/34/34 33/33/33
f 34/34/34 35/35/35 33/33/33
f 34/34/34 36/36/36 35/35/35
f 36/36/36 37/37/37 35/35/35
f 36/36/36 38/38/38 37/37/37
f 38/38/38 39/39/39 37/37/37
f 38/38/38 40/40/40 39/39/39
f 40/40/40 41/41/41 39/39/39
f 40/40/40 42/42/42 41/41/41
f 42/42/42 43/43/43 41/41/41
f 42/42/42 44/44/44 43/43/43
f 44/44/44 45/45/45 43/43/43
f 44/44/44 46/46/46 45/45/45
f 46/46/46 47/47/47 45/45/45
f 46/46/46 48/48/48 47/47/47
f 48/48/48 49/49/49 47/47/47
f 48/48/48 50/50/50 49/49/49
f 50/50/50 51/51/51 49/49/49
f 50/50/50 52/52/52 51/51/51
f 52/52/52 53/53/53 51/51/51
f 52/52/52 54/54/54 53/53/53
f 54/54/54 55/55/55 53/53/53
f 54/54/54 56/56/56 55/55/55
f 56/56/56 57/57/57 55/55/55
f 56/56/56 58/58/58 57/57/57
f 58/58/58 59/59/59 57/57/57
f 58/58/58 60/60/60 59/59/59
f 60/60/60 61/61/61 59/59/59
f 61/61/61 60/60/60 62/62/62
f 63/63/63 61/61/61 62/62/62
f 63/63/63 62/62/62 1/1/1
f 64/64/64 63/63/63 1/1/1
f 2/2/2 64/64/64 1/1/1
f 51/51/51 53/53/53 65/65/65
f 53/53/53 55/55/55 66/66/66
f 65/65/65 53/53/53 66/66/66
f 55/55/55 57/57/57 67/67/67
f 66/66/66 55/55/55 67/67/67
f 57/57/57 59/59/59 68/68/68
f 67/67/67 57/57/57 68/68/68
f 59/59/59 61/61/61 69/69/69
f 68/68/68 59/59/59 69/69/69
f 61/61/61 63/63/63 70/70/70
f 69/69/69 61/61/61 70/70/70
f 63/63/63 64/64/64 71/71/71
f 70/70/70 63/63/63 71/71/71
f 64/64/64 2/2/2 72/72/72
f 71/71/71 64/64/64 72/72/72
f 72/72/72 2/2/2 73/73/73
f 2/2/2 5/5/5 73/73/73
f 72/72/72 74/74/74 71/71/71
f 72/72/72 73/73/73 74/74/74
f 73/73/73 5/5/5 75/75/75
f 5/5/5 7/7/7 75/75/75
f 73/73/73 76/76/76 74/74/74
f 73/73/73 75/75/75 76/76/76
f 75/75/75 7/7/7 77/77/77
f 7/7/7 9/9/9 77/77/77
f 75/75/75 78/78/78 76/76/76
f 75/75/75 77/77/77 78/78/78
f 77/77/77 9/9/9 79/79/79
f 9/9/9 11/11/11 79/79/79
f 77/77/77 80/80/80 78/78/78
f 77/77/77 79/79/79 80/80/80
f 79/79/79 11/11/11 81/81/81
f 11/11/11 13/13/13 81/81/81
f 79/79/79 82/82/82 80/80/80
f 79/79/79 81/81/81 82/82/82
f 81/81/81 13/13/13 83/83/83
f 13/13/13 15/15/15 83/83/83
f 81/81/81 84/84/84 82/82/82
f 81/81/81 83/83/83 84/84/84
f 83/83/83 15/15/15 85/85/85
f 15/15/15 17/17/17 85/85/85
f 83/83/83 86/86/86 84/84/84
f 83/83/83 85/85/85 86/86/86
f 85/85/85 17/17/17 87/87/87
f 17/17/17 19/19/19 87/87/87
f 85/85/85 88/88/88 86/86/86
f 85/85/85 87/87/87 88/88/88
f 87/87/87 19/19/19 89/89/89
f 19/19/19 21/21/21 89/89/89
f 87/87/87 90/90/90 88/88/88
f 87/87/87 89/89/89 90/90/90
f 89/89/89 21/21/21 91/91/91
f 21/21/21 23/23/23 91/91/91
f 89/89/89 92/92/92 90/90/90
f 89/89/89 91/91/91 92/92/92
f 91/91/91 23/23/23 93/93/93
f 23/23/23 25/25/25 93/93/93
f 91/91/91 94/94/94 92/92/92
f 91/91/91 93/93/93 94/94/94
f 93/93/93 25/25/25 95/95/95
f 25/25/25 27/27/27 95/95/95
f 93/93/93 96/96/96 94/94/94
f 93/93/93 95/95/95 96/96/96
f 95/95/95 27/27/27 97/97/97
f 27/27/27 29/29/29 97/97/97
f 95/95/95 98/98/98 96/96/96
f 95/95/95 97/97/97 98/98/98
f 97/97/97 29/29/29 99/99/99
f 29/29/29 31/31/31 99/99/99
f 97/97/97 100/100/100 98/98/98
f 97/97/97 99/99/99 100/100/100
f 99/99/99 31/31/31 101/101/101
f 31/31/31 33/33/33 101/101/101
f 99/99/99 102/102/102 100/100/100
f 99/99/99 101/101/101 102/102/102
f 101/101/101 33/33/33 103/103/103
f 33/33/33 35/35/35 103/103/103
f 101/101/101 104/104/104 102/102/102
f 101/101/101 103/103/103 104/104/104
f 103/103/103 35/35/35 105/105/105
f 35/35/35 37/37/37 105/105/105
f 103/103/103 106/106/106 104/104/104
f 103/103/103 105/105/105 106/106/106
f 105/105/105 37/37/37 107/107/107
f 37/37/37 39/39/39 107/107/107
f 105/105/105 108/108/108 106/106/106
f 105/105/105 107/107/107 108/108/108
f 107/107/107 39/39/39 109/109/109
f 39/39/39 41/41/41 109/109/109
f 107/107/107 110/110/110 108/108/108
f 107/107/107 109/109/109 110/110/110
f 109/109/109 41/41/41 111/111/111
f 41/41/41 43/43/43 111/111/111
f 109/109/109 112/112/112 110/110/110
f 109/109/109 111/111/111 112/112/112
f 111/111/111 43/43/43 113/113/113
f 43/43/43 45/45/45 113/113/113
f 111/111/111 114/114/114 112/112/112
f 111/111/111 113/113/113 114/114/114
f 113/113/113 45/45/45 115/115/115
f 45/45/45 47/47/47 115/115/115
f 113/113/113 116/116/116 114/114/114
f 113/113/113 115/115/115 116/116/116
f 115/115/115 47/47/47 117/117/117
f 47/47/47 49/49/49 117/117/117
f 115/115/115 118/118/118 116/116/116
f 115/115/115 117/117/117 118/118/118
f 117/117/117 49/49/49 119/119/119
f 49/49/49 51/51/51 119/119/119
f 119/119/119 51/51/51 65/65/65
f 117/117/117 119/119/119 120/120/120
f 117/117/117 120/120/120 118/118/118
f 119/119/119 65/65/65 121/121/121
f 119/119/119 121/121/121 120/120/120
f 65/65/65 122/122/122 121/121/121
f 65/65/65 66/66/66 122/122/122
f 66/66/66 123/123/123 122/122/122
f 66/66/66 67/67/67 123/123/123
f 67/67/67 124/124/124 123/123/123
f 67/67/67 68/68/68 124/124/124
f 68/68/68 125/125/125 124/124/124
f 68/68/68 69/69/69 125/125/125
f 69/69/69 126/126/126 125/125/125
f 126/126/126 69/69/69 70/70/70
f 127/127/127 126/126/126 70/70/70
f 127/127/127 70/70/70 71/71/71
f 128/128/128 127/127/127 71/71/71
f 74/74/74 128/128/128 71/71/71
f 122/122/122 129/129/129 121/121/121
f 129/129/129 130/130/130 121/121/121
f 131/131/131 129/129/129 122/122/122
f 121/121/121 130/130/130 120/120/120
f 123/123/123 131/131/131 122/122/122
f 130/130/130 132/132/132 120/120/120
f 133/133/133 131/131/131 123/123/123
f 120/120/120 132/132/132 118/118/118
f 124/124/124 133/133/133 123/123/123
f 132/132/132 134/134/134 118/118/118
f 135/135/135 133/133/133 124/124/124
f 118/118/118 134/134/134 116/116/116
f 125/125/125 135/135/135 124/124/124
f 134/134/134 136/136/136 116/116/116
f 137/137/137 135/135/135 125/125/125
f 116/116/116 136/136/136 114/114/114
f 126/126/126 137/137/137 125/125/125
f 136/136/136 138/138/138 114/114/114
f 139/139/139 137/137/137 126/126/126
f 114/114/114 138/138/138 112/112/112
f 127/127/127 139/139/139 126/126/126
f 138/138/138 140/140/140 112/112/112
f 141/141/141 139/139/139 127/127/127
f 112/112/112 140/140/140 110/110/110
f 128/128/128 141/141/141 127/127/127
f 140/140/140 142/142/142 110/110/110
f 143/143/143 141/141/141 128/128/128
f 110/110/110 142/142/142 108/108/108
f 74/74/74 143/143/143 128/128/128
f 142/142/142 144/144/144 108/108/108
f 145/145/145 143/143/143 74/74/74
f 108/108/108 144/144/144 106/106/106
f 76/76/76 145/145/145 74/74/74
f 144/144/144 146/146/146 106/106/106
f 147/147/147 145/145/145 76/76/76
f 106/106/106 146/146/146 104/104/104
f 78/78/78 147/147/147 76/76/76
f 146/146/146 148/148/148 104/104/104
f 149/149/149 147/147/147 78/78/78
f 104/104/104 148/148/148 102/102/102
f 80/80/80 149/149/149 78/78/78
f 148/148/148 150/150/150 102/102/102
f 151/151/151 149/149/149 80/80/80
f 102/102/102 150/150/150 100/100/100
f 82/82/82 151/151/151 80/80/80
f 150/150/150 152/152/152 100/100/100
f 153/153/153 151/151/151 82/82/82
f 100/100/100 152/152/152 98/98/98
f 84/84/84 153/153/153 82/82/82
f 152/152/152 154/154/154 98/98/98
f 155/155/155 153/153/153 84/84/84
f 98/98/98 154/154/154 96/96/96
f 86/86/86 155/155/155 84/84/84
f 154/154/154 156/156/156 96/96/96
f 157/157/157 155/155/155 86/86/86
f 96/96/96 156/156/156 94/94/94
f 88/88/88 157/157/157 86/86/86
f 156/156/156 158/158/158 94/94/94
f 159/159/159 157/157/157 88/88/88
f 94/94/94 158/158/158 92/92/92
f 90/90/90 159/159/159 88/88/88
f 158/158/158 160/160/160 92/92/92
f 160/160/160 159/159/159 90/90/90
f 92/92/92 160/160/160 90/90/90
