g DispenserTop
v -0.3988554 0.9935562 -0.3423831
v -0.3821682 0.9943322 -0.4100258
v -0.366558 1.021626 -0.391995
v -0.3726977 1.025121 -0.3423831
v -0.3821682 0.9943321 -0.2747403
v -0.366558 1.021625 -0.292771
v -0.3361835 1.026726 -0.2826155
v -0.3419997 0.9971591 -0.2468325
v -0.2901212 0.9983665 -0.2392636
v -0.2894982 1.028566 -0.2786506
v 0.2894982 1.028566 -0.2786506
v 0.2901212 0.9983665 -0.2392636
v -0.2904648 0.9571575 -0.2242377
v 0.2904648 0.9571575 -0.2242377
v 0.3450723 0.9570641 -0.2336299
v 0.3419997 0.9971591 -0.2468325
v 0.3888192 0.9568391 -0.2672348
v 0.3821682 0.9943321 -0.2747403
v 0.4068722 0.9566141 -0.3423831
v 0.3988554 0.9935562 -0.3423831
v 0.3821682 0.9943322 -0.4100258
v 0.3888192 0.956839 -0.4175313
v 0.3450723 0.9570642 -0.4511362
v 0.3419997 0.997159 -0.4379337
v 0.2904648 0.9571574 -0.4605285
v 0.2901211 0.9983667 -0.4455025
v 0.366558 1.021626 -0.391995
v 0.3361835 1.026726 -0.4021505
v 0.2894981 1.028566 -0.4061155
v 0.2893159 1.036307 -0.342383
v 0.335873 1.034233 -0.3423831
v 0.3726977 1.025121 -0.3423831
v 0.366558 1.021625 -0.292771
v 0.3361835 1.026726 -0.2826155
v -0.2894982 1.028566 -0.2786506
v -0.2893159 1.036307 -0.342383
v 0.2894981 1.028566 -0.4061155
v 0.2893159 1.036307 -0.342383
v -0.2894981 1.028566 -0.4061155
v 0.2901211 0.9983667 -0.4455025
v -0.2901211 0.9983667 -0.4455025
v 0.2904648 0.9571574 -0.4605285
v -0.2904648 0.9571574 -0.4605285
v -0.3361835 1.026726 -0.4021505
v -0.3419997 0.997159 -0.4379337
v -0.3450723 0.9570642 -0.4511362
v -0.335873 1.034233 -0.3423831
v -0.2894982 1.028566 -0.2786506
v -0.3361835 1.026726 -0.2826155
v -0.366558 1.021625 -0.292771
v -0.3726977 1.025121 -0.3423831
v -0.366558 1.021626 -0.391995
v -0.3821682 0.9943322 -0.4100258
v -0.3888192 0.956839 -0.4175313
v -0.4068722 0.9566141 -0.3423831
v -0.3988554 0.9935562 -0.3423831
v -0.3821682 0.9943321 -0.2747403
v -0.3888192 0.9568391 -0.2672348
v -0.3419997 0.9971591 -0.2468325
v -0.3450723 0.9570641 -0.2336299
v -0.2901212 0.9983665 -0.2392636
v -0.2904648 0.9571575 -0.2242377
v 0.3988554 0.9935562 -0.3423831
v 0.366558 1.021626 -0.391995
v 0.3821682 0.9943322 -0.4100258
v 0.3726977 1.025121 -0.3423831
v 0.3821682 0.9943321 -0.2747403
v 0.366558 1.021625 -0.292771
v 0.3361835 1.026726 -0.2826155
v 0.3419997 0.9971591 -0.2468325
v 0.2901212 0.9983665 -0.2392636
v 0.2894982 1.028566 -0.2786506
vt 0.5712891 0.7509766
vt 0.5712891 0.7998047
vt 0.5712891 0.7998047
vt 0.5712891 0.75
vt 0.5688477 0.7119141
vt 0.5712891 0.7001953
vt 0.5629883 0.7001953
vt 0.5615234 0.7026367
vt 0.5512695 0.7001953
vt 0.5541992 0.7001953
vt 0.5541992 0.7001953
vt 0.5512695 0.7001953
vt 0.5541992 0.7001953
vt 0.5541992 0.7001953
vt 0.5629883 0.7001953
vt 0.5615234 0.7026367
vt 0.5712891 0.7001953
vt 0.5688477 0.7119141
vt 0.5712891 0.75
vt 0.5712891 0.7509766
vt 0.5712891 0.7998047
vt 0.5712891 0.7998047
vt 0.5629883 0.7998047
vt 0.5625 0.7973633
vt 0.5541992 0.7998047
vt 0.5541992 0.7978516
vt 0.5712891 0.7998047
vt 0.5625 0.7871094
vt 0.5532227 0.7885742
vt 0.550293 0.7490234
vt 0.5620117 0.7490234
vt 0.5712891 0.75
vt 0.5712891 0.7001953
vt 0.5629883 0.7001953
vt 0.5541992 0.7001953
vt 0.550293 0.7490234
vt 0.5532227 0.7885742
vt 0.550293 0.7490234
vt 0.5532227 0.7885742
vt 0.5541992 0.7978516
vt 0.5541992 0.7978516
vt 0.5541992 0.7998047
vt 0.5541992 0.7998047
vt 0.5625 0.7871094
vt 0.5625 0.7973633
vt 0.5629883 0.7998047
vt 0.5620117 0.7490234
vt 0.5541992 0.7001953
vt 0.5629883 0.7001953
vt 0.5712891 0.7001953
vt 0.5712891 0.75
vt 0.5712891 0.7998047
vt 0.5712891 0.7998047
vt 0.5712891 0.7998047
vt 0.5712891 0.75
vt 0.5712891 0.7509766
vt 0.5688477 0.7119141
vt 0.5712891 0.7001953
vt 0.5615234 0.7026367
vt 0.5629883 0.7001953
vt 0.5512695 0.7001953
vt 0.5541992 0.7001953
vt 0.5712891 0.7509766
vt 0.5712891 0.7998047
vt 0.5712891 0.7998047
vt 0.5712891 0.75
vt 0.5688477 0.7119141
vt 0.5712891 0.7001953
vt 0.5629883 0.7001953
vt 0.5615234 0.7026367
vt 0.5512695 0.7001953
vt 0.5541992 0.7001953
vn -0.9150391 0.4033203 0
vn -0.7646484 0.456543 -0.454834
vn -0.5219727 0.8037109 -0.2851563
vn -0.5585938 0.8295898 0.0001042485
vn -0.765625 0.453125 0.4562988
vn -0.5214844 0.8046875 0.2844238
vn -0.1732178 0.9155273 0.3635254
vn -0.3061523 0.5405273 0.7836914
vn -0.01547241 0.5952148 0.8037109
vn -0.006275177 0.9360352 0.3518066
vn 0.006736755 0.9360352 0.3513184
vn 0.01542664 0.5952148 0.8037109
vn -0.01942444 0.3413086 0.9399414
vn 0.01942444 0.3413086 0.9399414
vn 0.3557129 0.3139648 0.8803711
vn 0.3063965 0.5390625 0.784668
vn 0.824707 0.2568359 0.5039063
vn 0.7646484 0.456543 0.454834
vn 0.9765625 0.2161865 0
vn 0.9150391 0.4030762 0.000133276
vn 0.765625 0.453125 -0.4562988
vn 0.824707 0.2568359 -0.5039063
vn 0.3557129 0.3139648 -0.8803711
vn 0.3063965 0.5390625 -0.784668
vn 0.01942444 0.3413086 -0.9399414
vn 0.01532745 0.5947266 -0.8037109
vn 0.5214844 0.8046875 -0.2844238
vn 0.1741943 0.9155273 -0.362793
vn 0.006736755 0.9360352 -0.3513184
vn 0.003557205 1 1.752377E-05
vn 0.1170044 0.9931641 5.584955E-05
vn 0.5585938 0.8295898 0
vn 0.5219727 0.8037109 0.2851563
vn 0.1750488 0.9155273 0.3623047
vn -0.006275177 0.9360352 0.3518066
vn -0.003557205 1 1.740456E-05
vn 0.006736755 0.9360352 -0.3513184
vn 0.003557205 1 1.752377E-05
vn -0.006275177 0.9360352 -0.3518066
vn 0.01532745 0.5947266 -0.8037109
vn -0.0153656 0.5947266 -0.8037109
vn 0.01942444 0.3413086 -0.9399414
vn -0.01942444 0.3413086 -0.9399414
vn -0.1745605 0.9155273 -0.3625488
vn -0.3061523 0.5400391 -0.7841797
vn -0.3557129 0.3139648 -0.8803711
vn -0.1170044 0.9931641 0
vn -0.006275177 0.9360352 0.3518066
vn -0.1732178 0.9155273 0.3635254
vn -0.5214844 0.8046875 0.2844238
vn -0.5585938 0.8295898 0.0001042485
vn -0.5219727 0.8037109 -0.2851563
vn -0.7646484 0.456543 -0.454834
vn -0.824707 0.2568359 -0.5039063
vn -0.9765625 0.2161865 0
vn -0.9150391 0.4033203 0
vn -0.765625 0.453125 0.4562988
vn -0.824707 0.2568359 0.5039063
vn -0.3061523 0.5405273 0.7836914
vn -0.3557129 0.3139648 0.8803711
vn -0.01547241 0.5952148 0.8037109
vn -0.01942444 0.3413086 0.9399414
vn 0.9150391 0.4030762 0.000133276
vn 0.5214844 0.8046875 -0.2844238
vn 0.765625 0.453125 -0.4562988
vn 0.5585938 0.8295898 0
vn 0.7646484 0.456543 0.454834
vn 0.5219727 0.8037109 0.2851563
vn 0.1750488 0.9155273 0.3623047
vn 0.3063965 0.5390625 0.784668
vn 0.01542664 0.5952148 0.8037109
vn 0.006736755 0.9360352 0.3513184
g DispenserTop_0
f 3/3/3 2/2/2 1/1/1
f 4/4/4 3/3/3 1/1/1
f 4/4/4 1/1/1 5/5/5
f 6/6/6 4/4/4 5/5/5
f 6/6/6 5/5/5 7/7/7
f 5/5/5 8/8/8 7/7/7
f 7/7/7 8/8/8 9/9/9
f 10/10/10 7/7/7 9/9/9
f 10/10/10 9/9/9 11/11/11
f 9/9/9 12/12/12 11/11/11
f 12/12/12 9/9/9 13/13/13
f 14/14/14 12/12/12 13/13/13
f 12/12/12 14/14/14 15/15/15
f 16/16/16 12/12/12 15/15/15
f 16/16/16 15/15/15 17/17/17
f 18/18/18 16/16/16 17/17/17
f 18/18/18 17/17/17 19/19/19
f 20/20/20 18/18/18 19/19/19
f 21/21/21 20/20/20 19/19/19
f 22/22/22 21/21/21 19/19/19
f 21/21/21 22/22/22 23/23/23
f 24/24/24 21/21/21 23/23/23
f 24/24/24 23/23/23 25/25/25
f 26/26/26 24/24/24 25/25/25
f 21/21/21 24/24/24 27/27/27
f 24/24/24 26/26/26 28/28/28
f 24/24/24 28/28/28 27/27/27
f 26/26/26 29/29/29 28/28/28
f 29/29/29 30/30/30 28/28/28
f 28/28/28 31/31/31 27/27/27
f 30/30/30 31/31/31 28/28/28
f 31/31/31 32/32/32 27/27/27
f 32/32/32 31/31/31 33/33/33
f 31/31/31 34/34/34 33/33/33
f 11/11/11 34/34/34 31/31/31
f 30/30/30 11/11/11 31/31/31
f 35/35/35 11/11/11 30/30/30
f 36/36/36 35/35/35 30/30/30
f 38/38/38 37/37/37 36/36/36
f 37/37/37 39/39/39 36/36/36
f 37/37/37 40/40/40 39/39/39
f 40/40/40 41/41/41 39/39/39
f 41/41/41 40/40/40 42/42/42
f 43/43/43 41/41/41 42/42/42
f 36/36/36 39/39/39 44/44/44
f 39/39/39 41/41/41 44/44/44
f 45/45/45 41/41/41 43/43/43
f 41/41/41 45/45/45 44/44/44
f 46/46/46 45/45/45 43/43/43
f 47/47/47 36/36/36 44/44/44
f 48/48/48 36/36/36 47/47/47
f 49/49/49 48/48/48 47/47/47
f 49/49/49 47/47/47 50/50/50
f 47/47/47 51/51/51 50/50/50
f 51/51/51 47/47/47 52/52/52
f 47/47/47 44/44/44 52/52/52
f 44/44/44 45/45/45 52/52/52
f 45/45/45 53/53/53 52/52/52
f 53/53/53 45/45/45 46/46/46
f 54/54/54 53/53/53 46/46/46
f 53/53/53 54/54/54 55/55/55
f 56/56/56 53/53/53 55/55/55
f 57/57/57 56/56/56 55/55/55
f 58/58/58 57/57/57 55/55/55
f 59/59/59 57/57/57 58/58/58
f 60/60/60 59/59/59 58/58/58
f 61/61/61 59/59/59 60/60/60
f 62/62/62 61/61/61 60/60/60
f 65/65/65 64/64/64 63/63/63
f 64/64/64 66/66/66 63/63/63
f 63/63/63 66/66/66 67/67/67
f 66/66/66 68/68/68 67/67/67
f 67/67/67 68/68/68 69/69/69
f 70/70/70 67/67/67 69/69/69
f 70/70/70 69/69/69 71/71/71
f 69/69/69 72/72/72 71/71/71
