g O_Ray3
v 8.831499E-06 -8.831499E-06 -8.831499E-06
v -0.0001021606 0.0008791048 0.0218788
v -0.0003907399 0.0007459143 -8.831499E-06
v 0.0002974108 7.996213E-05 0.0218788
v 0.0001198236 -0.0008301726 -8.831499E-06
v 0.0004527996 -0.0008301726 0.0218788
vt 1 0.4983582
vt 0.0006354807 0.996081
vt 1 0.996081
vt 0.0006354807 0.4983582
vt 1 -0.001324058
vt 0.0006354807 -0.001324058
vn 0.9420536 0.3134694 -0.1194657
vn 0.8935337 0.4489962 0
vn 0.8935337 0.4489962 0
vn 0.9420536 0.3134694 -0.1194657
vn 0.9877089 0.1536756 -0.02854599
vn 0.9877089 0.1536756 -0.02854599
g O_Ray3_0
f 3/3/3 2/2/2 1/1/1
f 2/2/2 4/4/4 1/1/1
f 1/1/1 4/4/4 5/5/5
f 4/4/4 6/6/6 5/5/5
