g O_Ray4
v 0.000685853 -0.0003305041 2.635468E-06
v 0.000841318 -0.0002416669 0.0218788
v 0.0005081785 2.635468E-06 0.0218788
v 0.0003749227 -0.000108411 2.635468E-06
v 0.000108411 0.000113682 0.0218788
v -2.635468E-06 2.635468E-06 2.635468E-06
v -0.0003357751 9.14727E-05 0.0218788
v -0.0004024029 -4.178315E-05 2.635468E-06
v -0.0007577518 -0.000108411 0.0218788
v -0.0007799611 -0.0001972482 2.635468E-06
vt 1 0.005870604
vt -2.384186E-07 0.005870604
vt -2.384186E-07 0.252446
vt 1 0.252446
vt -2.384186E-07 0.4990214
vt 1 0.4990214
vt -2.384186E-07 0.7455968
vt 1 0.7455968
vt -2.384186E-07 0.9921722
vt 1 0.9921722
vn 0.6059356 0.7919189 -0.0755417
vn 0.6059356 0.7919189 -0.0755417
vn 0.4525163 0.8917562 0
vn 0.4525163 0.8917562 0
vn 0.09762291 0.9952235 0
vn 0.09762291 0.9952235 0
vn -0.2572645 0.9663411 0
vn -0.2572645 0.9663411 0
vn -0.4079984 0.9129826 0
vn -0.4079984 0.9129826 0
g O_Ray4_0
f 3/3/3 2/2/2 1/1/1
f 4/4/4 3/3/3 1/1/1
f 5/5/5 3/3/3 4/4/4
f 6/6/6 5/5/5 4/4/4
f 7/7/7 5/5/5 6/6/6
f 8/8/8 7/7/7 6/6/6
f 9/9/9 7/7/7 8/8/8
f 10/10/10 9/9/9 8/8/8
