g O_Ray1
v 0.001870782 0.0008068669 -8.069677E-06
v 0.001940634 0.001039706 0.0218788
v 0.001032561 0.0009000027 0.0218788
v 0.001032561 0.0006671636 -8.069677E-06
v 0.0002409087 0.0004808924 0.0218788
v 0.0002874765 0.0002946211 -8.069677E-06
v -0.0004110406 -0.0001710569 0.0218788
v -0.0002946211 -0.0003107603 -8.069677E-06
v -0.0008301509 -0.0009859935 0.0218788
v -0.0006904474 -0.001055845 -8.069677E-06
v -0.0009698544 -0.001870782 0.0218788
v -0.0008068669 -0.001870782 -8.069677E-06
vt 1 0.001956471
vt -4.768372E-07 0.001956471
vt -4.768372E-07 0.2015652
vt 1 0.2015652
vt -4.768372E-07 0.3992169
vt 1 0.3992169
vt -4.768372E-07 0.5988256
vt 1 0.5988256
vt -4.768372E-07 0.7984343
vt 1 0.7984343
vt -4.768372E-07 0.9980431
vt 1 0.9980431
vn -0.155687 0.9877819 -0.006965499
vn -0.155687 0.9877819 -0.006965499
vn -0.3141812 0.9481583 -0.04781169
vn -0.3141812 0.9481583 -0.04781169
vn -0.5915462 0.8028719 -0.07395849
vn -0.5915462 0.8028719 -0.07395849
vn -0.809663 0.5868949 0
vn -0.809663 0.5868949 0
vn -0.9481583 0.3141812 -0.04781137
vn -0.9481583 0.3009734 -0.1020333
vn -0.9877819 0.155687 -0.006963627
vn -0.9877819 0.155687 -0.006963627
g O_Ray1_0
f 3/3/3 2/2/2 1/1/1
f 4/4/4 3/3/3 1/1/1
f 5/5/5 3/3/3 4/4/4
f 6/6/6 5/5/5 4/4/4
f 7/7/7 5/5/5 6/6/6
f 8/8/8 7/7/7 6/6/6
f 9/9/9 7/7/7 8/8/8
f 10/10/10 9/9/9 8/8/8
f 11/11/11 9/9/9 10/10/10
f 12/12/12 11/11/11 10/10/10
